<svg width="512" height="512" viewBox="0 0 512 512" fill="none" xmlns="http://www.w3.org/2000/svg">
<g clip-path="url(#clip0_566_2)">
<path d="M0 0H512V512H0V0Z" fill="#1F1F1F"/>
<path d="M298.438 324.391C298.438 329.208 297.591 333.701 295.898 337.867C294.336 342.034 291.992 345.615 288.867 348.609C285.352 351.995 280.859 354.664 275.391 356.617C269.922 358.44 263.477 359.352 256.055 359.352C250.195 359.352 244.466 358.57 238.867 357.008C233.268 355.445 228.32 352.776 224.023 349C219.596 345.354 216.016 340.406 213.281 334.156C210.547 327.776 209.18 319.898 209.18 310.523H154.688C154.688 326.148 157.096 339.56 161.914 350.758C166.732 361.826 173.177 371.005 181.25 378.297C189.193 385.589 198.372 391.188 208.789 395.094C219.206 398.87 229.948 401.279 241.016 402.32V440.602H272.07V402.32C284.31 401.148 295.378 398.609 305.273 394.703C315.169 390.667 323.633 385.328 330.664 378.688C337.695 372.047 343.099 364.169 346.875 355.055C350.651 345.81 352.539 335.458 352.539 324C352.539 311.5 350.456 300.693 346.289 291.578C342.253 282.333 336.458 274.195 328.906 267.164C321.224 260.263 312.044 254.208 301.367 249C290.69 243.661 278.776 238.518 265.625 233.57C256.901 230.445 249.609 227.385 243.75 224.391C237.891 221.266 233.203 218.01 229.688 214.625C226.042 211.24 223.438 207.594 221.875 203.688C220.443 199.651 219.727 195.094 219.727 190.016C219.727 184.938 220.443 180.25 221.875 175.953C223.438 171.656 225.781 167.88 228.906 164.625C232.031 161.5 236.003 159.091 240.82 157.398C245.768 155.576 251.562 154.664 258.203 154.664C263.932 154.664 269.141 155.576 273.828 157.398C278.646 159.221 282.747 161.891 286.133 165.406C289.909 169.443 292.839 174.586 294.922 180.836C297.005 187.086 298.047 194.378 298.047 202.711H352.344C352.344 189.69 350.521 177.971 346.875 167.555C343.359 157.008 338.346 147.828 331.836 140.016C325.195 132.333 317.188 126.083 307.812 121.266C298.438 116.448 287.891 113.258 276.172 111.695V69.3125H244.922V111.305C232.943 112.477 222.07 115.146 212.305 119.312C202.539 123.479 194.206 128.948 187.305 135.719C180.404 142.49 175.065 150.497 171.289 159.742C167.513 168.857 165.625 178.948 165.625 190.016C165.625 202.646 167.708 213.583 171.875 222.828C176.042 231.943 181.966 239.951 189.648 246.852C197.201 253.753 206.38 259.807 217.188 265.016C227.995 270.224 239.974 275.172 253.125 279.859C261.328 282.724 268.294 285.654 274.023 288.648C279.883 291.513 284.635 294.703 288.281 298.219C291.797 301.734 294.336 305.641 295.898 309.938C297.591 314.104 298.438 318.922 298.438 324.391Z" fill="#ADFF00"/>
</g>
<defs>
<clipPath id="clip0_566_2">
<rect width="512" height="512" rx="100" fill="white"/>
</clipPath>
</defs>
</svg>
